<svg xmlns="http://www.w3.org/2000/svg" xmlns:xlink="http://www.w3.org/1999/xlink" width="500" zoomAndPan="magnify" viewBox="0 0 375 374.999991" height="500" preserveAspectRatio="xMidYMid meet" version="1.0"><defs><g/><clipPath id="88ba44363e"><path d="M 62.195312 158.488281 L 119.945312 158.488281 L 119.945312 216.238281 L 62.195312 216.238281 Z M 62.195312 158.488281 " clip-rule="nonzero"/></clipPath></defs><path fill="#36d4c1" d="M 100.304688 195.574219 C 100.769531 195.570312 101.21875 195.480469 101.648438 195.300781 C 102.082031 195.121094 102.460938 194.867188 102.789062 194.535156 C 103.117188 194.207031 103.371094 193.824219 103.546875 193.394531 C 103.726562 192.964844 103.816406 192.515625 103.8125 192.046875 C 103.8125 191.582031 103.722656 191.132812 103.542969 190.703125 C 103.363281 190.273438 103.109375 189.890625 102.78125 189.5625 C 102.449219 189.234375 102.070312 188.980469 101.636719 188.800781 C 101.207031 188.625 100.757812 188.535156 100.292969 188.535156 C 99.824219 188.535156 99.378906 188.625 98.945312 188.804688 C 98.515625 188.984375 98.136719 189.238281 97.804688 189.566406 C 97.476562 189.898438 97.222656 190.277344 97.042969 190.710938 C 96.867188 191.140625 96.777344 191.589844 96.777344 192.054688 C 96.777344 192.523438 96.867188 192.972656 97.046875 193.402344 C 97.222656 193.835938 97.480469 194.214844 97.808594 194.546875 C 98.140625 194.875 98.523438 195.128906 98.957031 195.308594 C 99.386719 195.488281 99.835938 195.574219 100.304688 195.574219 Z M 100.304688 195.574219 " fill-opacity="1" fill-rule="nonzero"/><path fill="#36d4c1" d="M 98.4375 179.828125 C 98.6875 179.828125 98.898438 179.742188 99.074219 179.5625 C 99.253906 179.386719 99.339844 179.175781 99.339844 178.925781 C 99.339844 178.675781 99.253906 178.460938 99.074219 178.285156 C 98.898438 178.109375 98.6875 178.019531 98.4375 178.019531 C 98.1875 178.019531 97.972656 178.109375 97.796875 178.285156 C 97.621094 178.460938 97.53125 178.675781 97.53125 178.925781 C 97.53125 179.175781 97.621094 179.386719 97.796875 179.5625 C 97.972656 179.742188 98.1875 179.828125 98.4375 179.828125 Z M 98.4375 179.828125 " fill-opacity="1" fill-rule="nonzero"/><path fill="#36d4c1" d="M 92.929688 201.03125 C 93.019531 200.914062 93.085938 200.789062 93.125 200.648438 C 93.167969 200.507812 93.179688 200.363281 93.160156 200.21875 C 93.144531 200.074219 93.101562 199.9375 93.03125 199.808594 C 92.957031 199.679688 92.867188 199.570312 92.75 199.480469 C 92.566406 199.332031 92.351562 199.25 92.113281 199.242188 L 91.984375 199.242188 C 91.683594 199.273438 91.4375 199.410156 91.25 199.648438 C 91.054688 199.886719 90.980469 200.160156 91.019531 200.464844 C 91.054688 200.769531 91.1875 201.015625 91.429688 201.210938 C 91.664062 201.378906 91.925781 201.449219 92.214844 201.414062 C 92.503906 201.378906 92.742188 201.25 92.929688 201.03125 Z M 92.929688 201.03125 " fill-opacity="1" fill-rule="nonzero"/><path fill="#36d4c1" d="M 88.019531 184.292969 C 88.019531 184.617188 87.988281 184.941406 87.925781 185.257812 C 87.859375 185.578125 87.765625 185.890625 87.640625 186.191406 C 87.515625 186.492188 87.363281 186.777344 87.183594 187.046875 C 87.003906 187.316406 86.796875 187.570312 86.566406 187.800781 C 86.335938 188.03125 86.085938 188.234375 85.816406 188.414062 C 85.542969 188.597656 85.257812 188.75 84.957031 188.875 C 84.65625 189 84.347656 189.09375 84.027344 189.15625 C 83.707031 189.21875 83.386719 189.25 83.058594 189.25 C 82.734375 189.25 82.410156 189.21875 82.09375 189.15625 C 81.773438 189.09375 81.460938 189 81.160156 188.875 C 80.859375 188.75 80.574219 188.597656 80.304688 188.414062 C 80.03125 188.234375 79.78125 188.03125 79.550781 187.800781 C 79.320312 187.570312 79.117188 187.316406 78.933594 187.046875 C 78.753906 186.777344 78.601562 186.492188 78.476562 186.191406 C 78.351562 185.890625 78.257812 185.578125 78.195312 185.257812 C 78.132812 184.941406 78.101562 184.617188 78.101562 184.292969 C 78.101562 183.964844 78.132812 183.644531 78.195312 183.324219 C 78.257812 183.003906 78.351562 182.695312 78.476562 182.394531 C 78.601562 182.09375 78.753906 181.808594 78.933594 181.535156 C 79.117188 181.265625 79.320312 181.015625 79.550781 180.785156 C 79.78125 180.554688 80.03125 180.347656 80.304688 180.167969 C 80.574219 179.988281 80.859375 179.835938 81.160156 179.710938 C 81.460938 179.585938 81.773438 179.492188 82.09375 179.425781 C 82.410156 179.363281 82.734375 179.332031 83.058594 179.332031 C 83.386719 179.332031 83.707031 179.363281 84.027344 179.425781 C 84.347656 179.492188 84.65625 179.585938 84.957031 179.710938 C 85.257812 179.835938 85.542969 179.988281 85.816406 180.167969 C 86.085938 180.347656 86.335938 180.554688 86.566406 180.785156 C 86.796875 181.015625 87.003906 181.265625 87.183594 181.535156 C 87.363281 181.808594 87.515625 182.09375 87.640625 182.394531 C 87.765625 182.695312 87.859375 183.003906 87.925781 183.324219 C 87.988281 183.644531 88.019531 183.964844 88.019531 184.292969 Z M 88.019531 184.292969 " fill-opacity="1" fill-rule="nonzero"/><g clip-path="url(#88ba44363e)"><path fill="#36d4c1" d="M 65.117188 193.019531 C 65.492188 193.019531 65.851562 192.945312 66.195312 192.800781 C 66.539062 192.65625 66.84375 192.453125 67.109375 192.1875 C 67.371094 191.925781 67.574219 191.621094 67.71875 191.273438 C 67.859375 190.929688 67.929688 190.570312 67.929688 190.195312 L 67.929688 189.996094 L 71.90625 189.996094 C 72.359375 193.378906 73.621094 196.421875 75.695312 199.132812 L 72.851562 201.976562 L 72.710938 201.835938 C 72.441406 201.582031 72.136719 201.390625 71.792969 201.253906 C 71.449219 201.121094 71.09375 201.050781 70.722656 201.050781 C 70.355469 201.050781 70 201.121094 69.65625 201.253906 C 69.3125 201.390625 69.007812 201.582031 68.738281 201.835938 C 68.476562 202.101562 68.273438 202.40625 68.132812 202.75 C 67.992188 203.09375 67.921875 203.453125 67.921875 203.824219 C 67.921875 204.195312 67.992188 204.554688 68.132812 204.898438 C 68.273438 205.242188 68.476562 205.546875 68.738281 205.8125 L 72.710938 209.789062 C 73.113281 210.1875 73.59375 210.445312 74.152344 210.554688 C 74.710938 210.667969 75.25 210.613281 75.777344 210.394531 C 76.300781 210.179688 76.722656 209.832031 77.039062 209.359375 C 77.355469 208.886719 77.511719 208.367188 77.511719 207.800781 C 77.519531 207.023438 77.246094 206.359375 76.699219 205.8125 L 76.558594 205.671875 L 79.402344 202.828125 C 82.109375 204.902344 85.15625 206.164062 88.535156 206.617188 L 88.535156 210.59375 L 88.335938 210.59375 C 87.949219 210.570312 87.574219 210.625 87.207031 210.757812 C 86.839844 210.890625 86.515625 211.089844 86.234375 211.355469 C 85.949219 211.621094 85.734375 211.933594 85.578125 212.292969 C 85.425781 212.648438 85.347656 213.023438 85.347656 213.410156 C 85.347656 213.800781 85.425781 214.171875 85.578125 214.527344 C 85.734375 214.886719 85.949219 215.199219 86.234375 215.464844 C 86.515625 215.730469 86.839844 215.929688 87.207031 216.0625 C 87.574219 216.195312 87.949219 216.25 88.335938 216.226562 L 93.902344 216.226562 C 94.292969 216.25 94.667969 216.195312 95.035156 216.0625 C 95.398438 215.929688 95.722656 215.730469 96.007812 215.464844 C 96.289062 215.199219 96.507812 214.886719 96.664062 214.527344 C 96.816406 214.171875 96.894531 213.800781 96.894531 213.410156 C 96.894531 213.023438 96.816406 212.648438 96.664062 212.292969 C 96.507812 211.933594 96.289062 211.621094 96.007812 211.355469 C 95.722656 211.089844 95.398438 210.890625 95.035156 210.757812 C 94.667969 210.625 94.292969 210.570312 93.902344 210.59375 L 93.703125 210.59375 L 93.703125 206.617188 C 97.085938 206.164062 100.128906 204.902344 102.839844 202.828125 L 105.683594 205.671875 L 105.542969 205.8125 C 104.996094 206.359375 104.722656 207.023438 104.726562 207.800781 C 104.730469 208.367188 104.886719 208.886719 105.203125 209.359375 C 105.519531 209.832031 105.941406 210.179688 106.464844 210.394531 C 106.992188 210.613281 107.53125 210.667969 108.089844 210.554688 C 108.648438 210.445312 109.125 210.1875 109.527344 209.789062 L 113.503906 205.8125 C 113.765625 205.546875 113.96875 205.242188 114.109375 204.898438 C 114.25 204.554688 114.320312 204.195312 114.320312 203.824219 C 114.320312 203.453125 114.25 203.09375 114.109375 202.75 C 113.96875 202.40625 113.765625 202.101562 113.503906 201.835938 C 113.234375 201.582031 112.929688 201.390625 112.585938 201.253906 C 112.242188 201.121094 111.886719 201.050781 111.515625 201.050781 C 111.148438 201.050781 110.792969 201.121094 110.449219 201.253906 C 110.105469 201.390625 109.796875 201.582031 109.527344 201.835938 L 109.390625 201.976562 L 106.546875 199.132812 C 108.621094 196.421875 109.882812 193.378906 110.335938 189.996094 L 114.308594 189.996094 L 114.308594 190.195312 C 114.285156 190.585938 114.34375 190.960938 114.472656 191.328125 C 114.605469 191.691406 114.808594 192.015625 115.074219 192.300781 C 115.339844 192.582031 115.652344 192.800781 116.007812 192.957031 C 116.367188 193.109375 116.738281 193.1875 117.128906 193.1875 C 117.515625 193.1875 117.890625 193.109375 118.246094 192.957031 C 118.605469 192.800781 118.914062 192.582031 119.183594 192.300781 C 119.449219 192.015625 119.648438 191.691406 119.78125 191.328125 C 119.914062 190.960938 119.96875 190.585938 119.945312 190.195312 L 119.945312 184.628906 C 119.96875 184.242188 119.914062 183.863281 119.78125 183.5 C 119.648438 183.132812 119.449219 182.808594 119.183594 182.527344 C 118.914062 182.242188 118.605469 182.023438 118.246094 181.871094 C 117.890625 181.714844 117.515625 181.640625 117.128906 181.640625 C 116.738281 181.640625 116.367188 181.714844 116.007812 181.871094 C 115.652344 182.023438 115.339844 182.242188 115.074219 182.527344 C 114.808594 182.808594 114.605469 183.132812 114.472656 183.5 C 114.34375 183.863281 114.285156 184.242188 114.308594 184.628906 L 114.308594 184.828125 L 110.335938 184.828125 C 109.882812 181.449219 108.621094 178.402344 106.546875 175.695312 L 109.390625 172.851562 L 109.527344 172.992188 C 110.078125 173.539062 110.742188 173.8125 111.515625 173.804688 C 112.085938 173.804688 112.605469 173.648438 113.078125 173.332031 C 113.550781 173.015625 113.894531 172.59375 114.113281 172.070312 C 114.332031 171.542969 114.382812 171 114.273438 170.445312 C 114.164062 169.886719 113.90625 169.40625 113.503906 169.003906 L 109.527344 165.027344 C 109.125 164.625 108.648438 164.371094 108.089844 164.257812 C 107.53125 164.148438 106.992188 164.203125 106.464844 164.417969 C 105.941406 164.636719 105.519531 164.980469 105.203125 165.453125 C 104.886719 165.925781 104.730469 166.449219 104.726562 167.015625 C 104.722656 167.792969 104.996094 168.457031 105.542969 169.003906 L 105.683594 169.144531 L 102.839844 171.988281 C 100.128906 169.914062 97.085938 168.652344 93.703125 168.199219 L 93.703125 164.222656 L 93.902344 164.222656 C 94.292969 164.246094 94.667969 164.191406 95.035156 164.058594 C 95.398438 163.925781 95.722656 163.726562 96.007812 163.460938 C 96.289062 163.191406 96.507812 162.882812 96.664062 162.523438 C 96.816406 162.167969 96.894531 161.792969 96.894531 161.40625 C 96.894531 161.015625 96.816406 160.644531 96.664062 160.285156 C 96.507812 159.929688 96.289062 159.617188 96.007812 159.351562 C 95.722656 159.085938 95.398438 158.882812 95.035156 158.753906 C 94.667969 158.621094 94.292969 158.566406 93.902344 158.585938 L 88.335938 158.585938 C 87.949219 158.566406 87.574219 158.621094 87.207031 158.753906 C 86.839844 158.882812 86.515625 159.085938 86.234375 159.351562 C 85.949219 159.617188 85.734375 159.929688 85.578125 160.285156 C 85.425781 160.644531 85.347656 161.015625 85.347656 161.40625 C 85.347656 161.792969 85.425781 162.167969 85.578125 162.523438 C 85.734375 162.882812 85.949219 163.191406 86.234375 163.460938 C 86.515625 163.726562 86.839844 163.925781 87.207031 164.058594 C 87.574219 164.191406 87.949219 164.246094 88.335938 164.222656 L 88.535156 164.222656 L 88.535156 168.199219 C 85.15625 168.652344 82.109375 169.914062 79.402344 171.988281 L 76.558594 169.144531 L 76.699219 169.003906 C 77.246094 168.457031 77.519531 167.792969 77.511719 167.015625 C 77.511719 166.449219 77.355469 165.925781 77.039062 165.453125 C 76.722656 164.980469 76.300781 164.636719 75.777344 164.417969 C 75.25 164.203125 74.710938 164.148438 74.152344 164.257812 C 73.59375 164.371094 73.113281 164.625 72.710938 165.027344 L 68.738281 169.003906 C 68.335938 169.40625 68.078125 169.886719 67.96875 170.445312 C 67.855469 171 67.910156 171.542969 68.128906 172.070312 C 68.34375 172.59375 68.691406 173.015625 69.164062 173.332031 C 69.636719 173.648438 70.15625 173.804688 70.722656 173.804688 C 71.5 173.8125 72.164062 173.539062 72.710938 172.992188 L 72.851562 172.851562 L 75.695312 175.695312 C 73.621094 178.402344 72.359375 181.449219 71.90625 184.828125 L 67.929688 184.828125 L 67.929688 184.628906 C 67.953125 184.242188 67.898438 183.863281 67.765625 183.5 C 67.632812 183.132812 67.433594 182.808594 67.167969 182.527344 C 66.902344 182.242188 66.589844 182.023438 66.230469 181.871094 C 65.875 181.714844 65.503906 181.640625 65.113281 181.640625 C 64.722656 181.640625 64.351562 181.714844 63.996094 181.871094 C 63.636719 182.023438 63.324219 182.242188 63.058594 182.527344 C 62.792969 182.808594 62.59375 183.132812 62.460938 183.5 C 62.328125 183.863281 62.273438 184.242188 62.296875 184.628906 L 62.296875 190.195312 C 62.296875 190.570312 62.367188 190.929688 62.511719 191.277344 C 62.652344 191.621094 62.859375 191.925781 63.121094 192.191406 C 63.386719 192.457031 63.691406 192.660156 64.039062 192.804688 C 64.382812 192.949219 64.742188 193.019531 65.117188 193.019531 Z M 98.4375 176.121094 C 98.8125 176.121094 99.171875 176.191406 99.519531 176.335938 C 99.867188 176.480469 100.175781 176.683594 100.441406 176.949219 C 100.707031 177.214844 100.910156 177.523438 101.054688 177.871094 C 101.199219 178.21875 101.269531 178.578125 101.269531 178.953125 C 101.269531 179.328125 101.199219 179.691406 101.054688 180.039062 C 100.910156 180.386719 100.707031 180.691406 100.441406 180.957031 C 100.175781 181.222656 99.867188 181.425781 99.519531 181.570312 C 99.171875 181.714844 98.8125 181.785156 98.4375 181.785156 C 98.0625 181.785156 97.699219 181.714844 97.351562 181.570312 C 97.003906 181.425781 96.699219 181.222656 96.433594 180.957031 C 96.167969 180.691406 95.964844 180.386719 95.820312 180.039062 C 95.675781 179.691406 95.605469 179.328125 95.605469 178.953125 C 95.597656 178.574219 95.667969 178.210938 95.8125 177.859375 C 95.953125 177.511719 96.15625 177.199219 96.421875 176.933594 C 96.6875 176.664062 96.996094 176.457031 97.34375 176.308594 C 97.695312 176.164062 98.058594 176.089844 98.4375 176.089844 Z M 100.304688 186.617188 C 100.664062 186.617188 101.015625 186.652344 101.367188 186.722656 C 101.71875 186.792969 102.058594 186.894531 102.390625 187.03125 C 102.722656 187.167969 103.035156 187.335938 103.332031 187.535156 C 103.628906 187.734375 103.90625 187.960938 104.15625 188.214844 C 104.410156 188.46875 104.636719 188.742188 104.835938 189.039062 C 105.035156 189.335938 105.203125 189.652344 105.339844 189.984375 C 105.476562 190.3125 105.578125 190.652344 105.648438 191.003906 C 105.71875 191.355469 105.753906 191.710938 105.753906 192.066406 C 105.75 192.425781 105.714844 192.78125 105.648438 193.132812 C 105.578125 193.480469 105.472656 193.824219 105.335938 194.152344 C 105.199219 194.484375 105.03125 194.796875 104.832031 195.09375 C 104.632812 195.390625 104.40625 195.667969 104.152344 195.917969 C 103.898438 196.171875 103.625 196.398438 103.328125 196.597656 C 103.027344 196.796875 102.714844 196.960938 102.382812 197.097656 C 102.054688 197.234375 101.710938 197.339844 101.363281 197.410156 C 101.011719 197.476562 100.65625 197.511719 100.296875 197.511719 C 99.941406 197.511719 99.585938 197.476562 99.234375 197.40625 C 98.882812 197.335938 98.542969 197.230469 98.214844 197.09375 C 97.882812 196.957031 97.570312 196.789062 97.273438 196.589844 C 96.976562 196.390625 96.699219 196.164062 96.449219 195.910156 C 96.195312 195.65625 95.96875 195.382812 95.769531 195.082031 C 95.574219 194.785156 95.40625 194.472656 95.269531 194.140625 C 95.132812 193.808594 95.03125 193.46875 94.960938 193.117188 C 94.890625 192.765625 94.855469 192.414062 94.859375 192.054688 C 94.859375 191.699219 94.894531 191.34375 94.960938 190.992188 C 95.03125 190.640625 95.136719 190.300781 95.273438 189.972656 C 95.410156 189.640625 95.578125 189.328125 95.777344 189.03125 C 95.976562 188.734375 96.199219 188.460938 96.453125 188.207031 C 96.707031 187.953125 96.980469 187.730469 97.28125 187.53125 C 97.578125 187.332031 97.890625 187.164062 98.222656 187.027344 C 98.550781 186.890625 98.890625 186.789062 99.242188 186.71875 C 99.59375 186.652344 99.949219 186.617188 100.304688 186.617188 Z M 93.945312 197.96875 C 94.410156 198.351562 94.734375 198.832031 94.914062 199.40625 C 95.09375 199.984375 95.101562 200.5625 94.9375 201.140625 C 94.769531 201.722656 94.460938 202.210938 94.003906 202.605469 C 93.546875 203 93.019531 203.234375 92.421875 203.316406 L 92.066406 203.316406 C 91.363281 203.320312 90.734375 203.101562 90.1875 202.660156 C 89.875 202.410156 89.621094 202.113281 89.425781 201.761719 C 89.230469 201.414062 89.109375 201.039062 89.0625 200.640625 C 89.015625 200.242188 89.046875 199.851562 89.15625 199.464844 C 89.265625 199.082031 89.441406 198.730469 89.6875 198.417969 C 89.941406 198.105469 90.246094 197.855469 90.597656 197.664062 C 90.949219 197.472656 91.324219 197.355469 91.722656 197.3125 C 92.121094 197.273438 92.515625 197.308594 92.898438 197.421875 C 93.285156 197.535156 93.632812 197.71875 93.945312 197.96875 Z M 80.027344 173.972656 C 81.328125 172.90625 82.753906 172.042969 84.300781 171.378906 C 82.746094 172.046875 81.3125 172.917969 80.007812 173.996094 Z M 83.058594 177.414062 C 83.511719 177.410156 83.960938 177.453125 84.40625 177.539062 C 84.851562 177.625 85.28125 177.753906 85.703125 177.925781 C 86.121094 178.09375 86.519531 178.304688 86.898438 178.554688 C 87.277344 178.804688 87.625 179.089844 87.949219 179.410156 C 88.269531 179.726562 88.558594 180.074219 88.808594 180.449219 C 89.0625 180.824219 89.277344 181.222656 89.453125 181.640625 C 89.628906 182.058594 89.761719 182.488281 89.851562 182.933594 C 89.941406 183.378906 89.984375 183.824219 89.988281 184.277344 C 89.988281 184.730469 89.945312 185.179688 89.859375 185.625 C 89.773438 186.070312 89.644531 186.5 89.46875 186.921875 C 89.296875 187.339844 89.085938 187.738281 88.835938 188.113281 C 88.585938 188.492188 88.300781 188.839844 87.980469 189.160156 C 87.660156 189.484375 87.3125 189.769531 86.9375 190.023438 C 86.5625 190.273438 86.164062 190.488281 85.746094 190.660156 C 85.328125 190.835938 84.894531 190.96875 84.453125 191.054688 C 84.007812 191.144531 83.558594 191.191406 83.105469 191.191406 C 82.652344 191.191406 82.203125 191.148438 81.761719 191.058594 C 81.316406 190.96875 80.882812 190.839844 80.464844 190.667969 C 80.046875 190.492188 79.648438 190.28125 79.273438 190.03125 C 78.894531 189.777344 78.546875 189.492188 78.226562 189.171875 C 77.90625 188.851562 77.621094 188.503906 77.371094 188.125 C 77.117188 187.75 76.90625 187.351562 76.734375 186.933594 C 76.558594 186.515625 76.429688 186.082031 76.34375 185.636719 C 76.253906 185.195312 76.210938 184.746094 76.210938 184.292969 C 76.210938 183.839844 76.257812 183.394531 76.34375 182.953125 C 76.433594 182.511719 76.5625 182.085938 76.734375 181.667969 C 76.90625 181.253906 77.117188 180.855469 77.367188 180.480469 C 77.617188 180.105469 77.898438 179.761719 78.21875 179.441406 C 78.535156 179.121094 78.882812 178.835938 79.253906 178.585938 C 79.628906 178.335938 80.023438 178.121094 80.4375 177.949219 C 80.851562 177.773438 81.28125 177.640625 81.722656 177.550781 C 82.164062 177.460938 82.609375 177.417969 83.058594 177.414062 Z M 75.21875 170.515625 L 77.949219 173.25 Z M 75.21875 170.515625 " fill-opacity="1" fill-rule="nonzero"/></g><g fill="#000000" fill-opacity="1"><g transform="translate(133.98592, 212.493615)"><g><path d="M 26.699219 -53.527344 C 25.894531 -53.527344 25.425781 -53.128906 25.226562 -52.324219 L 18.132812 -16.460938 L 11.105469 -52.324219 C 10.90625 -53.128906 10.4375 -53.527344 9.636719 -53.527344 L 3.277344 -53.527344 C 2.273438 -53.527344 1.875 -52.992188 2.074219 -52.058594 L 13.316406 -1.203125 C 13.515625 -0.402344 13.984375 0 14.789062 0 L 21.480469 0 C 22.28125 0 22.75 -0.402344 22.949219 -1.203125 L 34.257812 -52.058594 C 34.460938 -52.992188 34.058594 -53.527344 33.054688 -53.527344 Z M 26.699219 -53.527344 "/></g></g></g><g fill="#000000" fill-opacity="1"><g transform="translate(183.56876, 212.493615)"><g><path d="M 4.417969 -53.527344 C 3.679688 -53.527344 3.34375 -53.128906 3.34375 -52.457031 L 3.34375 -1.070312 C 3.34375 -0.402344 3.679688 0 4.417969 0 L 11.375 0 C 12.042969 0 12.445312 -0.402344 12.445312 -1.070312 L 12.445312 -52.457031 C 12.445312 -53.128906 12.042969 -53.527344 11.375 -53.527344 Z M 4.417969 -53.527344 "/></g></g></g><g fill="#000000" fill-opacity="1"><g transform="translate(212.610205, 212.493615)"><g><path d="M 3.34375 -1.070312 C 3.34375 -0.335938 3.679688 0 4.417969 0 L 20.476562 0 C 26.765625 0 30.109375 -3.34375 30.109375 -9.636719 L 30.109375 -43.828125 C 30.109375 -50.117188 26.765625 -53.527344 20.476562 -53.527344 L 4.417969 -53.527344 C 3.679688 -53.527344 3.34375 -53.128906 3.34375 -52.457031 Z M 12.445312 -8.832031 L 12.445312 -44.695312 L 18.601562 -44.695312 C 20.339844 -44.695312 21.277344 -43.761719 21.277344 -41.953125 L 21.277344 -11.507812 C 21.277344 -9.703125 20.339844 -8.832031 18.601562 -8.832031 Z M 12.445312 -8.832031 "/></g></g></g><g fill="#000000" fill-opacity="1"><g transform="translate(259.315919, 212.493615)"><g><path d="M 3.34375 -21.011719 C 3.34375 -20.140625 3.8125 -19.671875 4.683594 -19.671875 L 15.253906 -19.671875 C 16.125 -19.671875 16.59375 -20.140625 16.59375 -21.011719 L 16.59375 -27.167969 C 16.59375 -28.035156 16.125 -28.503906 15.253906 -28.503906 L 4.683594 -28.503906 C 3.8125 -28.503906 3.34375 -28.035156 3.34375 -27.167969 Z M 3.34375 -21.011719 "/></g></g></g><g fill="#000000" fill-opacity="1"><g transform="translate(292.505785, 212.493615)"><g><path d="M 4.617188 -51.855469 C 3.746094 -51.789062 3.34375 -51.320312 3.34375 -50.453125 L 3.34375 -44.027344 C 3.34375 -43.15625 3.882812 -42.691406 4.75 -42.824219 L 8.898438 -43.359375 L 8.898438 -1.070312 C 8.898438 -0.402344 9.234375 0 9.96875 0 L 16.929688 0 C 17.597656 0 18 -0.402344 18 -1.070312 L 18 -52.457031 C 18 -53.128906 17.597656 -53.527344 16.929688 -53.527344 Z M 4.617188 -51.855469 "/></g></g></g><g fill="#000000" fill-opacity="1"><g transform="translate(327.769872, 212.493615)"><g><path d="M 18.535156 -20.675781 L 10.4375 -1.539062 C 10.035156 -0.601562 10.4375 0 11.441406 0 L 18.402344 0 C 19.203125 0 19.671875 -0.335938 19.941406 -1.003906 L 29.441406 -23.621094 C 29.910156 -24.824219 30.109375 -25.695312 30.109375 -26.964844 L 30.109375 -44.160156 C 30.109375 -50.25 26.832031 -53.527344 20.742188 -53.527344 L 12.714844 -53.527344 C 6.625 -53.527344 3.34375 -50.25 3.34375 -44.160156 L 3.34375 -30.042969 C 3.34375 -23.953125 6.625 -20.675781 12.714844 -20.675781 Z M 18.601562 -44.695312 C 20.339844 -44.695312 21.277344 -43.761719 21.277344 -42.019531 L 21.277344 -32.183594 C 21.277344 -30.445312 20.339844 -29.507812 18.601562 -29.507812 L 14.855469 -29.507812 C 13.113281 -29.507812 12.179688 -30.445312 12.179688 -32.183594 L 12.179688 -42.019531 C 12.179688 -43.761719 13.113281 -44.695312 14.855469 -44.695312 Z M 18.601562 -44.695312 "/></g></g></g><g fill="#000000" fill-opacity="1"><g transform="translate(14.324258, 212.493615)"><g><path d="M 30.175781 -43.894531 C 30.175781 -50.183594 26.765625 -53.527344 20.542969 -53.527344 L 13.046875 -53.527344 C 6.757812 -53.527344 3.34375 -50.183594 3.34375 -43.894531 L 3.34375 -9.636719 C 3.34375 -3.34375 6.757812 0 13.046875 0 L 20.542969 0 C 26.765625 0 30.175781 -3.34375 30.175781 -9.636719 L 30.175781 -16.863281 C 30.175781 -17.53125 29.777344 -17.933594 29.105469 -17.933594 L 22.414062 -17.933594 C 21.679688 -17.933594 21.34375 -17.53125 21.34375 -16.863281 L 21.34375 -11.507812 C 21.34375 -9.703125 20.40625 -8.832031 18.667969 -8.832031 L 15.1875 -8.832031 C 13.449219 -8.832031 12.511719 -9.703125 12.511719 -11.507812 L 12.511719 -42.019531 C 12.511719 -43.761719 13.382812 -44.695312 15.1875 -44.695312 L 18.667969 -44.695312 C 20.40625 -44.695312 21.34375 -43.761719 21.34375 -42.019531 L 21.34375 -36.667969 C 21.34375 -36 21.679688 -35.597656 22.414062 -35.597656 L 29.105469 -35.597656 C 29.777344 -35.597656 30.175781 -36 30.175781 -36.667969 Z M 30.175781 -43.894531 "/></g></g></g></svg>