<svg xmlns="http://www.w3.org/2000/svg" xmlns:xlink="http://www.w3.org/1999/xlink" width="500" zoomAndPan="magnify" viewBox="0 0 375 374.999991" height="500" preserveAspectRatio="xMidYMid meet" version="1.0"><path fill="#36d4c1" d="M 247.460938 240.8125 C 248.210938 240.8125 248.957031 240.773438 249.699219 240.695312 C 250.441406 240.621094 251.183594 240.511719 251.914062 240.363281 C 252.648438 240.214844 253.371094 240.03125 254.085938 239.8125 C 254.800781 239.59375 255.503906 239.339844 256.195312 239.050781 C 256.886719 238.761719 257.558594 238.441406 258.21875 238.089844 C 258.878906 237.734375 259.515625 237.347656 260.136719 236.929688 C 260.757812 236.515625 261.355469 236.066406 261.933594 235.59375 C 262.511719 235.117188 263.0625 234.613281 263.589844 234.082031 C 264.117188 233.554688 264.617188 233 265.09375 232.417969 C 265.566406 231.839844 266.007812 231.238281 266.421875 230.617188 C 266.835938 229.992188 267.21875 229.351562 267.570312 228.691406 C 267.921875 228.03125 268.238281 227.355469 268.523438 226.664062 C 268.808594 225.972656 269.058594 225.269531 269.273438 224.550781 C 269.492188 223.835938 269.671875 223.109375 269.816406 222.378906 C 269.960938 221.644531 270.066406 220.90625 270.140625 220.160156 C 270.210938 219.414062 270.246094 218.667969 270.246094 217.921875 C 270.242188 217.175781 270.207031 216.429688 270.132812 215.683594 C 270.054688 214.941406 269.945312 214.199219 269.796875 213.46875 C 269.652344 212.734375 269.46875 212.011719 269.25 211.296875 C 269.03125 210.578125 268.777344 209.875 268.492188 209.1875 C 268.203125 208.496094 267.882812 207.820312 267.53125 207.160156 C 267.175781 206.503906 266.792969 205.863281 266.375 205.242188 C 265.957031 204.621094 265.511719 204.019531 265.039062 203.445312 C 264.5625 202.867188 264.058594 202.3125 263.53125 201.785156 C 263 201.257812 262.445312 200.757812 261.867188 200.28125 C 261.289062 199.808594 260.6875 199.367188 260.066406 198.949219 C 259.445312 198.535156 258.800781 198.152344 258.144531 197.800781 C 257.484375 197.449219 256.808594 197.128906 256.117188 196.84375 C 255.425781 196.558594 254.722656 196.308594 254.003906 196.09375 C 253.289062 195.875 252.5625 195.695312 251.832031 195.550781 C 251.097656 195.40625 250.359375 195.296875 249.613281 195.222656 C 248.871094 195.152344 248.125 195.117188 247.375 195.117188 C 246.628906 195.117188 245.882812 195.15625 245.136719 195.226562 C 244.394531 195.300781 243.652344 195.414062 242.921875 195.558594 C 242.1875 195.707031 241.464844 195.886719 240.746094 196.105469 C 240.03125 196.324219 239.328125 196.574219 238.636719 196.863281 C 237.949219 197.148438 237.273438 197.46875 236.613281 197.820312 C 235.953125 198.175781 235.3125 198.558594 234.691406 198.972656 C 234.070312 199.390625 233.46875 199.835938 232.890625 200.308594 C 232.316406 200.785156 231.761719 201.285156 231.234375 201.816406 C 230.703125 202.34375 230.203125 202.898438 229.730469 203.476562 C 229.253906 204.054688 228.808594 204.65625 228.394531 205.277344 C 227.980469 205.898438 227.59375 206.539062 227.242188 207.199219 C 226.890625 207.859375 226.570312 208.535156 226.285156 209.226562 C 226 209.917969 225.746094 210.621094 225.53125 211.335938 C 225.3125 212.050781 225.132812 212.777344 224.988281 213.511719 C 224.839844 214.242188 224.730469 214.980469 224.65625 215.726562 C 224.585938 216.472656 224.546875 217.21875 224.546875 217.964844 C 224.546875 218.714844 224.585938 219.460938 224.660156 220.207031 C 224.730469 220.953125 224.84375 221.695312 224.988281 222.429688 C 225.136719 223.164062 225.316406 223.890625 225.535156 224.609375 C 225.753906 225.324219 226.007812 226.03125 226.292969 226.722656 C 226.582031 227.414062 226.902344 228.09375 227.253906 228.753906 C 227.609375 229.414062 227.996094 230.054688 228.414062 230.679688 C 228.828125 231.300781 229.277344 231.902344 229.753906 232.480469 C 230.230469 233.058594 230.730469 233.613281 231.261719 234.144531 C 231.792969 234.671875 232.347656 235.175781 232.929688 235.648438 C 233.511719 236.125 234.113281 236.570312 234.734375 236.984375 C 235.359375 237.402344 236.003906 237.785156 236.664062 238.136719 C 237.328125 238.488281 238.003906 238.808594 238.699219 239.09375 C 239.390625 239.378906 240.097656 239.628906 240.8125 239.84375 C 241.53125 240.0625 242.257812 240.242188 242.996094 240.386719 C 243.730469 240.53125 244.472656 240.636719 245.21875 240.710938 C 245.964844 240.78125 246.710938 240.816406 247.460938 240.8125 Z M 247.460938 240.8125 " fill-opacity="1" fill-rule="nonzero"/><path fill="#36d4c1" d="M 235.328125 138.574219 C 235.710938 138.574219 236.09375 138.539062 236.472656 138.460938 C 236.851562 138.386719 237.21875 138.277344 237.574219 138.128906 C 237.929688 137.980469 238.269531 137.800781 238.589844 137.585938 C 238.910156 137.371094 239.207031 137.128906 239.480469 136.855469 C 239.753906 136.582031 239.996094 136.285156 240.210938 135.964844 C 240.425781 135.644531 240.605469 135.304688 240.753906 134.949219 C 240.902344 134.59375 241.011719 134.226562 241.085938 133.847656 C 241.164062 133.46875 241.199219 133.089844 241.199219 132.703125 C 241.199219 132.316406 241.164062 131.933594 241.085938 131.554688 C 241.011719 131.179688 240.902344 130.8125 240.753906 130.453125 C 240.605469 130.097656 240.425781 129.757812 240.210938 129.4375 C 239.996094 129.117188 239.753906 128.820312 239.480469 128.550781 C 239.207031 128.277344 238.910156 128.03125 238.589844 127.820312 C 238.269531 127.605469 237.929688 127.421875 237.574219 127.277344 C 237.21875 127.128906 236.851562 127.015625 236.472656 126.941406 C 236.09375 126.867188 235.710938 126.828125 235.328125 126.828125 C 234.941406 126.828125 234.558594 126.867188 234.179688 126.941406 C 233.804688 127.015625 233.4375 127.128906 233.078125 127.277344 C 232.722656 127.421875 232.382812 127.605469 232.0625 127.820312 C 231.742188 128.03125 231.445312 128.277344 231.171875 128.550781 C 230.902344 128.820312 230.65625 129.117188 230.445312 129.4375 C 230.230469 129.757812 230.046875 130.097656 229.902344 130.453125 C 229.753906 130.8125 229.640625 131.179688 229.566406 131.554688 C 229.492188 131.933594 229.453125 132.316406 229.453125 132.703125 C 229.453125 133.089844 229.492188 133.46875 229.566406 133.847656 C 229.640625 134.226562 229.753906 134.59375 229.902344 134.949219 C 230.046875 135.304688 230.230469 135.644531 230.445312 135.964844 C 230.65625 136.285156 230.902344 136.582031 231.171875 136.855469 C 231.445312 137.128906 231.742188 137.371094 232.0625 137.585938 C 232.382812 137.800781 232.722656 137.980469 233.078125 138.128906 C 233.4375 138.277344 233.804688 138.386719 234.179688 138.460938 C 234.558594 138.539062 234.941406 138.574219 235.328125 138.574219 Z M 235.328125 138.574219 " fill-opacity="1" fill-rule="nonzero"/><path fill="#36d4c1" d="M 199.570312 276.246094 C 199.863281 275.878906 200.117188 275.484375 200.332031 275.066406 C 200.546875 274.648438 200.71875 274.210938 200.847656 273.761719 C 200.976562 273.308594 201.058594 272.847656 201.097656 272.378906 C 201.136719 271.910156 201.128906 271.441406 201.074219 270.972656 C 201.019531 270.503906 200.921875 270.046875 200.777344 269.597656 C 200.632812 269.152344 200.449219 268.722656 200.21875 268.308594 C 199.988281 267.898438 199.722656 267.515625 199.417969 267.15625 C 199.113281 266.796875 198.777344 266.472656 198.40625 266.179688 C 197.203125 265.207031 195.824219 264.691406 194.277344 264.628906 L 193.4375 264.628906 C 192.496094 264.730469 191.609375 265.011719 190.78125 265.472656 C 189.953125 265.929688 189.246094 266.53125 188.660156 267.277344 C 188.058594 268.019531 187.628906 268.847656 187.371094 269.769531 C 187.113281 270.6875 187.046875 271.621094 187.175781 272.570312 C 187.277344 273.519531 187.558594 274.414062 188.015625 275.253906 C 188.472656 276.09375 189.078125 276.8125 189.824219 277.410156 C 190.1875 277.675781 190.574219 277.902344 190.984375 278.09375 C 191.390625 278.289062 191.8125 278.441406 192.25 278.554688 C 192.683594 278.667969 193.128906 278.738281 193.578125 278.769531 C 194.027344 278.800781 194.476562 278.789062 194.925781 278.734375 C 195.371094 278.683594 195.808594 278.589844 196.242188 278.453125 C 196.671875 278.316406 197.085938 278.144531 197.480469 277.929688 C 197.878906 277.71875 198.253906 277.46875 198.605469 277.1875 C 198.957031 276.902344 199.277344 276.589844 199.570312 276.246094 Z M 199.570312 276.246094 " fill-opacity="1" fill-rule="nonzero"/><path fill="#36d4c1" d="M 167.683594 167.554688 C 167.683594 168.609375 167.632812 169.664062 167.53125 170.710938 C 167.425781 171.761719 167.273438 172.804688 167.066406 173.839844 C 166.859375 174.875 166.605469 175.894531 166.296875 176.90625 C 165.992188 177.914062 165.636719 178.90625 165.234375 179.882812 C 164.828125 180.855469 164.378906 181.808594 163.882812 182.738281 C 163.382812 183.667969 162.84375 184.574219 162.257812 185.449219 C 161.671875 186.328125 161.042969 187.171875 160.375 187.988281 C 159.707031 188.804688 158.996094 189.585938 158.25 190.328125 C 157.503906 191.074219 156.726562 191.785156 155.910156 192.453125 C 155.09375 193.121094 154.25 193.75 153.371094 194.335938 C 152.492188 194.921875 151.589844 195.464844 150.660156 195.960938 C 149.730469 196.457031 148.777344 196.90625 147.804688 197.3125 C 146.828125 197.714844 145.835938 198.070312 144.828125 198.375 C 143.816406 198.683594 142.796875 198.9375 141.761719 199.144531 C 140.726562 199.351562 139.683594 199.503906 138.632812 199.609375 C 137.585938 199.710938 136.53125 199.761719 135.476562 199.761719 C 134.421875 199.761719 133.371094 199.710938 132.320312 199.609375 C 131.269531 199.503906 130.230469 199.351562 129.195312 199.144531 C 128.160156 198.9375 127.136719 198.683594 126.128906 198.375 C 125.117188 198.070312 124.125 197.714844 123.152344 197.3125 C 122.179688 196.90625 121.226562 196.457031 120.296875 195.960938 C 119.363281 195.464844 118.460938 194.921875 117.585938 194.335938 C 116.707031 193.75 115.859375 193.121094 115.046875 192.453125 C 114.230469 191.785156 113.449219 191.074219 112.703125 190.328125 C 111.957031 189.585938 111.25 188.804688 110.582031 187.988281 C 109.910156 187.171875 109.285156 186.328125 108.699219 185.449219 C 108.113281 184.574219 107.570312 183.667969 107.074219 182.738281 C 106.574219 181.808594 106.125 180.855469 105.722656 179.882812 C 105.316406 178.90625 104.964844 177.914062 104.65625 176.90625 C 104.351562 175.894531 104.09375 174.875 103.890625 173.839844 C 103.683594 172.804688 103.527344 171.761719 103.425781 170.710938 C 103.320312 169.664062 103.269531 168.609375 103.269531 167.554688 C 103.269531 166.5 103.320312 165.449219 103.425781 164.398438 C 103.527344 163.347656 103.683594 162.308594 103.890625 161.273438 C 104.09375 160.238281 104.351562 159.214844 104.65625 158.207031 C 104.964844 157.195312 105.316406 156.207031 105.722656 155.230469 C 106.125 154.257812 106.574219 153.304688 107.074219 152.375 C 107.570312 151.441406 108.113281 150.539062 108.699219 149.664062 C 109.285156 148.785156 109.910156 147.9375 110.582031 147.125 C 111.25 146.308594 111.957031 145.527344 112.703125 144.78125 C 113.449219 144.035156 114.230469 143.328125 115.046875 142.660156 C 115.859375 141.988281 116.707031 141.363281 117.585938 140.777344 C 118.460938 140.191406 119.363281 139.648438 120.296875 139.152344 C 121.226562 138.65625 122.179688 138.203125 123.152344 137.800781 C 124.125 137.398438 125.117188 137.042969 126.128906 136.734375 C 127.136719 136.429688 128.160156 136.171875 129.195312 135.96875 C 130.230469 135.761719 131.269531 135.605469 132.320312 135.503906 C 133.371094 135.398438 134.421875 135.347656 135.476562 135.347656 C 136.53125 135.347656 137.585938 135.398438 138.632812 135.503906 C 139.683594 135.605469 140.726562 135.761719 141.761719 135.96875 C 142.796875 136.171875 143.816406 136.429688 144.828125 136.734375 C 145.835938 137.042969 146.828125 137.398438 147.804688 137.800781 C 148.777344 138.203125 149.730469 138.65625 150.660156 139.152344 C 151.589844 139.648438 152.492188 140.191406 153.371094 140.777344 C 154.25 141.363281 155.09375 141.988281 155.910156 142.660156 C 156.726562 143.328125 157.503906 144.035156 158.25 144.78125 C 158.996094 145.527344 159.707031 146.308594 160.375 147.125 C 161.042969 147.9375 161.671875 148.785156 162.257812 149.664062 C 162.84375 150.539062 163.382812 151.441406 163.882812 152.375 C 164.378906 153.304688 164.828125 154.257812 165.234375 155.230469 C 165.636719 156.207031 165.992188 157.195312 166.296875 158.207031 C 166.605469 159.214844 166.859375 160.238281 167.066406 161.273438 C 167.273438 162.308594 167.425781 163.347656 167.53125 164.398438 C 167.632812 165.449219 167.683594 166.5 167.683594 167.554688 Z M 167.683594 167.554688 " fill-opacity="1" fill-rule="nonzero"/><path fill="#36d4c1" d="M 18.976562 224.226562 C 19.574219 224.222656 20.171875 224.191406 20.769531 224.132812 C 21.363281 224.070312 21.957031 223.980469 22.542969 223.863281 C 23.128906 223.742188 23.710938 223.597656 24.28125 223.421875 C 24.855469 223.246094 25.417969 223.042969 25.972656 222.8125 C 26.523438 222.582031 27.0625 222.324219 27.589844 222.039062 C 28.117188 221.757812 28.632812 221.449219 29.128906 221.113281 C 29.625 220.78125 30.105469 220.421875 30.566406 220.042969 C 31.03125 219.660156 31.472656 219.257812 31.894531 218.832031 C 32.320312 218.410156 32.71875 217.964844 33.097656 217.503906 C 33.476562 217.039062 33.832031 216.558594 34.164062 216.058594 C 34.5 215.558594 34.804688 215.046875 35.085938 214.519531 C 35.367188 213.988281 35.625 213.449219 35.851562 212.894531 C 36.082031 212.339844 36.28125 211.777344 36.457031 211.203125 C 36.628906 210.632812 36.773438 210.050781 36.890625 209.464844 C 37.007812 208.875 37.09375 208.285156 37.152344 207.6875 C 37.210938 207.089844 37.242188 206.492188 37.242188 205.894531 L 37.242188 204.605469 L 63.058594 204.605469 C 63.777344 209.976562 64.839844 215.277344 66.25 220.511719 C 67.65625 225.746094 69.398438 230.863281 71.476562 235.871094 C 73.550781 240.875 75.941406 245.726562 78.648438 250.421875 C 81.355469 255.117188 84.355469 259.617188 87.652344 263.921875 L 69.191406 282.378906 L 68.289062 281.476562 C 67.417969 280.664062 66.484375 279.941406 65.480469 279.308594 C 64.476562 278.675781 63.421875 278.140625 62.316406 277.703125 C 61.210938 277.269531 60.078125 276.9375 58.910156 276.71875 C 57.742188 276.496094 56.566406 276.386719 55.378906 276.386719 C 54.191406 276.386719 53.015625 276.496094 51.847656 276.71875 C 50.679688 276.9375 49.546875 277.269531 48.441406 277.703125 C 47.335938 278.140625 46.28125 278.675781 45.277344 279.308594 C 44.273438 279.941406 43.335938 280.664062 42.46875 281.476562 C 42.050781 281.902344 41.652344 282.34375 41.277344 282.808594 C 40.902344 283.273438 40.550781 283.753906 40.222656 284.25 C 39.894531 284.75 39.589844 285.261719 39.3125 285.789062 C 39.03125 286.316406 38.78125 286.855469 38.554688 287.410156 C 38.328125 287.960938 38.128906 288.523438 37.957031 289.09375 C 37.785156 289.667969 37.640625 290.246094 37.527344 290.828125 C 37.410156 291.414062 37.324219 292.003906 37.265625 292.597656 C 37.207031 293.191406 37.179688 293.789062 37.179688 294.382812 C 37.179688 294.980469 37.207031 295.578125 37.265625 296.171875 C 37.324219 296.765625 37.410156 297.355469 37.527344 297.9375 C 37.640625 298.523438 37.785156 299.101562 37.957031 299.675781 C 38.128906 300.246094 38.328125 300.808594 38.554688 301.359375 C 38.78125 301.910156 39.03125 302.453125 39.3125 302.980469 C 39.589844 303.507812 39.894531 304.019531 40.222656 304.519531 C 40.550781 305.015625 40.902344 305.496094 41.277344 305.960938 C 41.652344 306.425781 42.050781 306.867188 42.46875 307.292969 L 68.289062 333.109375 C 68.921875 333.746094 69.601562 334.328125 70.320312 334.863281 C 71.042969 335.398438 71.800781 335.878906 72.59375 336.300781 C 73.382812 336.722656 74.203125 337.085938 75.046875 337.386719 C 75.894531 337.691406 76.757812 337.929688 77.636719 338.105469 C 78.515625 338.277344 79.40625 338.386719 80.300781 338.433594 C 81.199219 338.476562 82.09375 338.453125 82.988281 338.367188 C 83.882812 338.277344 84.761719 338.125 85.632812 337.90625 C 86.503906 337.6875 87.355469 337.40625 88.183594 337.0625 C 89.015625 336.722656 89.8125 336.316406 90.582031 335.855469 C 91.355469 335.394531 92.085938 334.878906 92.78125 334.3125 C 93.472656 333.742188 94.121094 333.125 94.726562 332.460938 C 95.328125 331.792969 95.878906 331.089844 96.378906 330.34375 C 96.878906 329.597656 97.320312 328.816406 97.703125 328.007812 C 98.089844 327.195312 98.410156 326.359375 98.671875 325.5 C 98.933594 324.640625 99.128906 323.769531 99.261719 322.878906 C 99.394531 321.992188 99.460938 321.101562 99.460938 320.203125 C 99.480469 317.785156 99.03125 315.453125 98.113281 313.214844 C 97.195312 310.976562 95.878906 309.003906 94.167969 307.292969 L 93.265625 306.390625 L 111.726562 287.929688 C 116.03125 291.222656 120.527344 294.222656 125.222656 296.929688 C 129.917969 299.636719 134.769531 302.03125 139.773438 304.105469 C 144.78125 306.179688 149.902344 307.921875 155.132812 309.332031 C 160.367188 310.738281 165.667969 311.804688 171.042969 312.523438 L 171.042969 338.339844 L 169.75 338.339844 C 169.128906 338.300781 168.507812 338.296875 167.882812 338.324219 C 167.261719 338.351562 166.640625 338.40625 166.023438 338.496094 C 165.410156 338.585938 164.796875 338.707031 164.195312 338.859375 C 163.589844 339.011719 162.996094 339.195312 162.410156 339.40625 C 161.824219 339.621094 161.25 339.859375 160.6875 340.132812 C 160.128906 340.402344 159.582031 340.703125 159.050781 341.027344 C 158.519531 341.355469 158.007812 341.707031 157.515625 342.085938 C 157.019531 342.464844 156.546875 342.871094 156.089844 343.296875 C 155.636719 343.722656 155.207031 344.171875 154.800781 344.644531 C 154.390625 345.117188 154.007812 345.605469 153.652344 346.117188 C 153.292969 346.625 152.964844 347.152344 152.660156 347.699219 C 152.355469 348.242188 152.082031 348.800781 151.832031 349.371094 C 151.585938 349.945312 151.371094 350.527344 151.183594 351.121094 C 150.996094 351.714844 150.835938 352.316406 150.710938 352.929688 C 150.585938 353.539062 150.492188 354.152344 150.425781 354.773438 C 150.363281 355.394531 150.332031 356.015625 150.332031 356.636719 C 150.332031 357.261719 150.363281 357.882812 150.425781 358.5 C 150.492188 359.121094 150.585938 359.738281 150.710938 360.347656 C 150.835938 360.957031 150.996094 361.558594 151.183594 362.152344 C 151.371094 362.746094 151.585938 363.332031 151.832031 363.902344 C 152.082031 364.472656 152.355469 365.03125 152.660156 365.578125 C 152.964844 366.121094 153.292969 366.648438 153.652344 367.15625 C 154.007812 367.667969 154.390625 368.160156 154.800781 368.628906 C 155.207031 369.101562 155.636719 369.550781 156.089844 369.976562 C 156.546875 370.40625 157.019531 370.808594 157.515625 371.1875 C 158.007812 371.566406 158.519531 371.917969 159.050781 372.246094 C 159.582031 372.574219 160.128906 372.871094 160.6875 373.140625 C 161.25 373.414062 161.824219 373.65625 162.410156 373.867188 C 162.996094 374.082031 163.589844 374.261719 164.195312 374.414062 C 164.796875 374.566406 165.410156 374.6875 166.023438 374.777344 C 166.640625 374.867188 167.261719 374.925781 167.882812 374.949219 C 168.507812 374.976562 169.128906 374.972656 169.75 374.933594 L 205.894531 374.933594 C 206.515625 374.972656 207.140625 374.976562 207.761719 374.949219 C 208.382812 374.925781 209.003906 374.867188 209.621094 374.777344 C 210.238281 374.6875 210.847656 374.566406 211.453125 374.414062 C 212.054688 374.261719 212.652344 374.082031 213.238281 373.867188 C 213.820312 373.65625 214.394531 373.414062 214.957031 373.140625 C 215.519531 372.871094 216.0625 372.574219 216.59375 372.246094 C 217.125 371.917969 217.636719 371.566406 218.132812 371.1875 C 218.625 370.808594 219.101562 370.40625 219.554688 369.976562 C 220.007812 369.550781 220.4375 369.101562 220.84375 368.628906 C 221.253906 368.160156 221.636719 367.667969 221.992188 367.15625 C 222.351562 366.648438 222.679688 366.121094 222.984375 365.578125 C 223.289062 365.03125 223.566406 364.472656 223.8125 363.902344 C 224.058594 363.332031 224.277344 362.746094 224.464844 362.152344 C 224.652344 361.558594 224.808594 360.957031 224.933594 360.347656 C 225.058594 359.738281 225.15625 359.121094 225.21875 358.5 C 225.28125 357.882812 225.3125 357.261719 225.3125 356.636719 C 225.3125 356.015625 225.28125 355.394531 225.21875 354.773438 C 225.15625 354.152344 225.058594 353.539062 224.933594 352.929688 C 224.808594 352.316406 224.652344 351.714844 224.464844 351.121094 C 224.277344 350.527344 224.058594 349.945312 223.8125 349.371094 C 223.566406 348.800781 223.289062 348.242188 222.984375 347.699219 C 222.679688 347.152344 222.351562 346.625 221.992188 346.117188 C 221.636719 345.605469 221.253906 345.117188 220.84375 344.644531 C 220.4375 344.171875 220.007812 343.722656 219.554688 343.296875 C 219.101562 342.871094 218.625 342.464844 218.132812 342.085938 C 217.636719 341.707031 217.125 341.355469 216.59375 341.027344 C 216.0625 340.703125 215.519531 340.402344 214.957031 340.132812 C 214.394531 339.859375 213.820312 339.621094 213.238281 339.40625 C 212.652344 339.195312 212.054688 339.011719 211.453125 338.859375 C 210.847656 338.707031 210.238281 338.585938 209.621094 338.496094 C 209.003906 338.40625 208.382812 338.351562 207.761719 338.324219 C 207.140625 338.296875 206.515625 338.300781 205.894531 338.339844 L 204.605469 338.339844 L 204.605469 312.523438 C 209.976562 311.804688 215.277344 310.738281 220.511719 309.332031 C 225.746094 307.921875 230.863281 306.179688 235.871094 304.105469 C 240.875 302.03125 245.726562 299.636719 250.421875 296.929688 C 255.117188 294.222656 259.617188 291.222656 263.917969 287.929688 L 282.378906 306.390625 L 281.476562 307.292969 C 279.765625 309.003906 278.453125 310.976562 277.535156 313.214844 C 276.617188 315.453125 276.164062 317.785156 276.183594 320.203125 C 276.183594 321.101562 276.25 321.992188 276.382812 322.878906 C 276.515625 323.769531 276.710938 324.640625 276.972656 325.5 C 277.234375 326.359375 277.558594 327.195312 277.941406 328.007812 C 278.324219 328.816406 278.765625 329.597656 279.265625 330.34375 C 279.765625 331.089844 280.316406 331.792969 280.917969 332.460938 C 281.523438 333.125 282.171875 333.742188 282.867188 334.3125 C 283.558594 334.878906 284.292969 335.394531 285.0625 335.855469 C 285.832031 336.316406 286.632812 336.722656 287.460938 337.0625 C 288.289062 337.40625 289.140625 337.6875 290.011719 337.90625 C 290.882812 338.125 291.765625 338.277344 292.65625 338.367188 C 293.550781 338.453125 294.445312 338.476562 295.34375 338.433594 C 296.238281 338.386719 297.128906 338.277344 298.007812 338.105469 C 298.890625 337.929688 299.753906 337.691406 300.597656 337.386719 C 301.441406 337.085938 302.261719 336.722656 303.054688 336.300781 C 303.84375 335.878906 304.601562 335.398438 305.324219 334.863281 C 306.042969 334.328125 306.722656 333.746094 307.359375 333.109375 L 333.175781 307.292969 C 333.59375 306.867188 333.992188 306.425781 334.367188 305.960938 C 334.742188 305.496094 335.09375 305.015625 335.421875 304.519531 C 335.75 304.019531 336.054688 303.507812 336.335938 302.980469 C 336.613281 302.453125 336.867188 301.910156 337.089844 301.359375 C 337.316406 300.808594 337.515625 300.246094 337.6875 299.675781 C 337.859375 299.101562 338.003906 298.523438 338.117188 297.9375 C 338.234375 297.355469 338.320312 296.765625 338.378906 296.171875 C 338.4375 295.578125 338.464844 294.980469 338.464844 294.382812 C 338.464844 293.789062 338.4375 293.191406 338.378906 292.597656 C 338.320312 292.003906 338.234375 291.414062 338.117188 290.828125 C 338.003906 290.246094 337.859375 289.667969 337.6875 289.09375 C 337.515625 288.523438 337.316406 287.960938 337.089844 287.410156 C 336.867188 286.855469 336.613281 286.316406 336.335938 285.789062 C 336.054688 285.261719 335.75 284.75 335.421875 284.25 C 335.09375 283.753906 334.742188 283.273438 334.367188 282.808594 C 333.992188 282.34375 333.59375 281.902344 333.175781 281.476562 C 332.308594 280.664062 331.371094 279.941406 330.367188 279.308594 C 329.363281 278.675781 328.308594 278.140625 327.203125 277.703125 C 326.101562 277.269531 324.964844 276.9375 323.796875 276.71875 C 322.632812 276.496094 321.453125 276.386719 320.265625 276.386719 C 319.078125 276.386719 317.902344 276.496094 316.734375 276.71875 C 315.570312 276.9375 314.433594 277.269531 313.328125 277.703125 C 312.222656 278.140625 311.167969 278.675781 310.164062 279.308594 C 309.160156 279.941406 308.226562 280.664062 307.359375 281.476562 L 306.453125 282.378906 L 287.996094 263.921875 C 291.289062 259.617188 294.289062 255.117188 296.996094 250.421875 C 299.703125 245.726562 302.09375 240.875 304.167969 235.871094 C 306.246094 230.863281 307.988281 225.746094 309.394531 220.511719 C 310.804688 215.277344 311.867188 209.976562 312.585938 204.605469 L 338.402344 204.605469 L 338.402344 205.894531 C 338.367188 206.515625 338.363281 207.140625 338.386719 207.761719 C 338.414062 208.382812 338.472656 209.003906 338.5625 209.621094 C 338.652344 210.238281 338.773438 210.847656 338.925781 211.453125 C 339.078125 212.054688 339.257812 212.652344 339.472656 213.238281 C 339.683594 213.820312 339.925781 214.394531 340.195312 214.957031 C 340.46875 215.515625 340.765625 216.0625 341.09375 216.59375 C 341.421875 217.125 341.773438 217.636719 342.152344 218.132812 C 342.53125 218.625 342.933594 219.101562 343.363281 219.554688 C 343.789062 220.007812 344.238281 220.4375 344.710938 220.84375 C 345.179688 221.253906 345.671875 221.636719 346.179688 221.992188 C 346.691406 222.351562 347.21875 222.679688 347.761719 222.984375 C 348.304688 223.289062 348.863281 223.5625 349.4375 223.8125 C 350.007812 224.058594 350.589844 224.273438 351.1875 224.460938 C 351.78125 224.648438 352.382812 224.808594 352.992188 224.933594 C 353.601562 225.058594 354.21875 225.152344 354.835938 225.21875 C 355.457031 225.28125 356.078125 225.3125 356.703125 225.3125 C 357.324219 225.3125 357.945312 225.28125 358.566406 225.21875 C 359.1875 225.152344 359.800781 225.058594 360.410156 224.933594 C 361.019531 224.808594 361.625 224.648438 362.21875 224.460938 C 362.8125 224.273438 363.394531 224.058594 363.96875 223.8125 C 364.539062 223.5625 365.097656 223.289062 365.640625 222.984375 C 366.183594 222.679688 366.710938 222.351562 367.222656 221.992188 C 367.734375 221.636719 368.222656 221.253906 368.695312 220.84375 C 369.164062 220.4375 369.613281 220.007812 370.042969 219.554688 C 370.46875 219.101562 370.871094 218.625 371.25 218.132812 C 371.628906 217.636719 371.984375 217.125 372.308594 216.59375 C 372.636719 216.0625 372.9375 215.515625 373.207031 214.957031 C 373.476562 214.394531 373.71875 213.820312 373.933594 213.238281 C 374.144531 212.652344 374.328125 212.054688 374.480469 211.453125 C 374.632812 210.847656 374.75 210.238281 374.839844 209.621094 C 374.929688 209.003906 374.988281 208.382812 375.015625 207.761719 C 375.042969 207.140625 375.035156 206.515625 375 205.894531 L 375 169.75 C 375.035156 169.128906 375.042969 168.507812 375.015625 167.882812 C 374.988281 167.261719 374.929688 166.640625 374.839844 166.023438 C 374.75 165.410156 374.632812 164.796875 374.480469 164.195312 C 374.328125 163.589844 374.144531 162.996094 373.933594 162.410156 C 373.71875 161.824219 373.476562 161.25 373.207031 160.6875 C 372.9375 160.128906 372.636719 159.582031 372.308594 159.050781 C 371.984375 158.519531 371.628906 158.007812 371.25 157.515625 C 370.871094 157.019531 370.46875 156.546875 370.042969 156.09375 C 369.613281 155.636719 369.164062 155.207031 368.695312 154.800781 C 368.222656 154.394531 367.734375 154.011719 367.222656 153.652344 C 366.710938 153.292969 366.183594 152.964844 365.640625 152.660156 C 365.097656 152.355469 364.539062 152.082031 363.96875 151.835938 C 363.394531 151.585938 362.8125 151.371094 362.21875 151.183594 C 361.625 150.996094 361.019531 150.839844 360.410156 150.710938 C 359.800781 150.585938 359.1875 150.492188 358.566406 150.429688 C 357.945312 150.363281 357.324219 150.332031 356.703125 150.332031 C 356.078125 150.332031 355.457031 150.363281 354.835938 150.429688 C 354.21875 150.492188 353.601562 150.585938 352.992188 150.710938 C 352.382812 150.839844 351.78125 150.996094 351.1875 151.183594 C 350.589844 151.371094 350.007812 151.585938 349.4375 151.835938 C 348.863281 152.082031 348.304688 152.355469 347.761719 152.660156 C 347.21875 152.964844 346.691406 153.292969 346.179688 153.652344 C 345.671875 154.011719 345.179688 154.394531 344.710938 154.800781 C 344.238281 155.207031 343.789062 155.636719 343.363281 156.09375 C 342.933594 156.546875 342.53125 157.019531 342.152344 157.515625 C 341.773438 158.007812 341.421875 158.519531 341.09375 159.050781 C 340.765625 159.582031 340.46875 160.128906 340.195312 160.6875 C 339.925781 161.25 339.683594 161.824219 339.472656 162.410156 C 339.257812 162.996094 339.078125 163.589844 338.925781 164.195312 C 338.773438 164.796875 338.652344 165.410156 338.5625 166.023438 C 338.472656 166.640625 338.414062 167.261719 338.386719 167.882812 C 338.363281 168.507812 338.367188 169.128906 338.402344 169.75 L 338.402344 171.042969 L 312.585938 171.042969 C 311.867188 165.667969 310.804688 160.367188 309.394531 155.132812 C 307.988281 149.902344 306.246094 144.78125 304.167969 139.773438 C 302.09375 134.769531 299.703125 129.917969 296.996094 125.222656 C 294.289062 120.527344 291.289062 116.03125 287.996094 111.726562 L 306.453125 93.265625 L 307.359375 94.167969 C 309.070312 95.878906 311.042969 97.195312 313.28125 98.113281 C 315.519531 99.03125 317.847656 99.480469 320.265625 99.460938 C 321.164062 99.460938 322.058594 99.394531 322.945312 99.261719 C 323.832031 99.128906 324.707031 98.933594 325.566406 98.671875 C 326.425781 98.410156 327.257812 98.089844 328.070312 97.703125 C 328.882812 97.320312 329.660156 96.878906 330.40625 96.378906 C 331.152344 95.878906 331.859375 95.328125 332.523438 94.726562 C 333.1875 94.121094 333.804688 93.472656 334.375 92.78125 C 334.945312 92.085938 335.460938 91.355469 335.921875 90.582031 C 336.382812 89.8125 336.785156 89.015625 337.128906 88.183594 C 337.472656 87.355469 337.753906 86.503906 337.972656 85.632812 C 338.1875 84.761719 338.34375 83.882812 338.429688 82.988281 C 338.519531 82.09375 338.539062 81.199219 338.496094 80.300781 C 338.453125 79.40625 338.34375 78.515625 338.167969 77.636719 C 337.992188 76.757812 337.753906 75.894531 337.453125 75.046875 C 337.148438 74.203125 336.789062 73.382812 336.363281 72.59375 C 335.941406 71.800781 335.464844 71.042969 334.929688 70.320312 C 334.394531 69.601562 333.808594 68.921875 333.175781 68.289062 L 307.359375 42.46875 C 306.722656 41.835938 306.042969 41.25 305.324219 40.714844 C 304.601562 40.183594 303.84375 39.703125 303.054688 39.28125 C 302.261719 38.859375 301.441406 38.496094 300.597656 38.191406 C 299.753906 37.890625 298.890625 37.652344 298.007812 37.476562 C 297.128906 37.300781 296.238281 37.191406 295.34375 37.148438 C 294.445312 37.105469 293.550781 37.128906 292.65625 37.214844 C 291.765625 37.304688 290.882812 37.457031 290.011719 37.675781 C 289.140625 37.890625 288.289062 38.171875 287.460938 38.515625 C 286.632812 38.859375 285.832031 39.261719 285.0625 39.722656 C 284.292969 40.183594 283.558594 40.699219 282.867188 41.269531 C 282.171875 41.839844 281.523438 42.457031 280.917969 43.121094 C 280.316406 43.785156 279.765625 44.492188 279.265625 45.238281 C 278.765625 45.984375 278.324219 46.761719 277.941406 47.574219 C 277.558594 48.386719 277.234375 49.222656 276.972656 50.078125 C 276.710938 50.9375 276.515625 51.8125 276.382812 52.699219 C 276.25 53.589844 276.183594 54.480469 276.183594 55.378906 C 276.164062 57.796875 276.617188 60.125 277.535156 62.363281 C 278.453125 64.601562 279.765625 66.578125 281.476562 68.289062 L 282.378906 69.191406 L 263.921875 87.652344 C 259.617188 84.355469 255.117188 81.355469 250.421875 78.648438 C 245.726562 75.941406 240.875 73.550781 235.871094 71.476562 C 230.863281 69.398438 225.746094 67.65625 220.511719 66.25 C 215.277344 64.839844 209.976562 63.777344 204.605469 63.058594 L 204.605469 37.242188 L 205.894531 37.242188 C 206.515625 37.277344 207.140625 37.285156 207.761719 37.257812 C 208.382812 37.230469 209.003906 37.171875 209.621094 37.082031 C 210.238281 36.992188 210.847656 36.871094 211.453125 36.722656 C 212.054688 36.570312 212.652344 36.386719 213.238281 36.175781 C 213.820312 35.960938 214.394531 35.71875 214.957031 35.449219 C 215.519531 35.175781 216.0625 34.878906 216.59375 34.550781 C 217.125 34.226562 217.636719 33.871094 218.132812 33.492188 C 218.625 33.113281 219.101562 32.710938 219.554688 32.285156 C 220.007812 31.855469 220.4375 31.40625 220.84375 30.9375 C 221.253906 30.464844 221.636719 29.972656 221.992188 29.464844 C 222.351562 28.953125 222.679688 28.425781 222.984375 27.882812 C 223.289062 27.339844 223.5625 26.78125 223.8125 26.207031 C 224.058594 25.636719 224.277344 25.054688 224.464844 24.460938 C 224.652344 23.867188 224.808594 23.261719 224.933594 22.652344 C 225.058594 22.042969 225.152344 21.429688 225.21875 20.808594 C 225.28125 20.1875 225.3125 19.566406 225.3125 18.945312 C 225.3125 18.320312 225.28125 17.699219 225.21875 17.078125 C 225.152344 16.460938 225.058594 15.84375 224.933594 15.234375 C 224.808594 14.625 224.652344 14.023438 224.464844 13.429688 C 224.277344 12.832031 224.058594 12.25 223.8125 11.679688 C 223.5625 11.105469 223.289062 10.546875 222.984375 10.003906 C 222.679688 9.460938 222.351562 8.933594 221.992188 8.421875 C 221.636719 7.914062 221.253906 7.421875 220.84375 6.949219 C 220.4375 6.480469 220.007812 6.03125 219.554688 5.601562 C 219.101562 5.175781 218.625 4.773438 218.132812 4.394531 C 217.636719 4.015625 217.125 3.660156 216.59375 3.335938 C 216.0625 3.007812 215.515625 2.710938 214.957031 2.4375 C 214.394531 2.167969 213.820312 1.925781 213.238281 1.714844 C 212.652344 1.5 212.054688 1.316406 211.453125 1.167969 C 210.847656 1.015625 210.238281 0.894531 209.621094 0.804688 C 209.003906 0.714844 208.382812 0.65625 207.761719 0.628906 C 207.140625 0.601562 206.515625 0.609375 205.894531 0.644531 L 169.75 0.644531 C 169.128906 0.609375 168.507812 0.601562 167.882812 0.628906 C 167.261719 0.65625 166.640625 0.714844 166.023438 0.804688 C 165.410156 0.894531 164.796875 1.015625 164.195312 1.167969 C 163.589844 1.316406 162.996094 1.5 162.410156 1.714844 C 161.824219 1.925781 161.25 2.167969 160.6875 2.4375 C 160.128906 2.710938 159.582031 3.007812 159.050781 3.335938 C 158.519531 3.660156 158.007812 4.015625 157.515625 4.394531 C 157.019531 4.773438 156.546875 5.175781 156.09375 5.601562 C 155.636719 6.03125 155.207031 6.480469 154.800781 6.949219 C 154.390625 7.421875 154.011719 7.914062 153.652344 8.421875 C 153.292969 8.933594 152.964844 9.460938 152.660156 10.003906 C 152.355469 10.546875 152.082031 11.105469 151.832031 11.679688 C 151.585938 12.25 151.371094 12.832031 151.183594 13.425781 C 150.996094 14.023438 150.839844 14.625 150.710938 15.234375 C 150.585938 15.84375 150.492188 16.460938 150.425781 17.078125 C 150.363281 17.699219 150.332031 18.320312 150.332031 18.945312 C 150.332031 19.566406 150.363281 20.1875 150.425781 20.808594 C 150.492188 21.429688 150.585938 22.042969 150.710938 22.652344 C 150.839844 23.261719 150.996094 23.867188 151.183594 24.460938 C 151.371094 25.054688 151.585938 25.636719 151.832031 26.207031 C 152.082031 26.78125 152.355469 27.339844 152.660156 27.882812 C 152.964844 28.425781 153.292969 28.953125 153.652344 29.464844 C 154.011719 29.972656 154.390625 30.464844 154.800781 30.9375 C 155.207031 31.40625 155.636719 31.855469 156.09375 32.285156 C 156.546875 32.710938 157.019531 33.113281 157.515625 33.492188 C 158.007812 33.871094 158.519531 34.226562 159.050781 34.550781 C 159.582031 34.878906 160.128906 35.175781 160.6875 35.449219 C 161.25 35.71875 161.824219 35.960938 162.410156 36.175781 C 162.996094 36.386719 163.589844 36.570312 164.195312 36.722656 C 164.796875 36.871094 165.410156 36.992188 166.023438 37.082031 C 166.640625 37.171875 167.261719 37.230469 167.882812 37.257812 C 168.507812 37.285156 169.128906 37.277344 169.75 37.242188 L 171.042969 37.242188 L 171.042969 63.058594 C 165.667969 63.777344 160.367188 64.839844 155.132812 66.25 C 149.902344 67.65625 144.78125 69.398438 139.773438 71.476562 C 134.769531 73.550781 129.917969 75.941406 125.222656 78.648438 C 120.527344 81.355469 116.03125 84.355469 111.726562 87.652344 L 93.265625 69.191406 L 94.167969 68.289062 C 95.878906 66.578125 97.195312 64.601562 98.113281 62.363281 C 99.03125 60.125 99.480469 57.796875 99.460938 55.378906 C 99.460938 54.480469 99.394531 53.589844 99.261719 52.699219 C 99.128906 51.8125 98.933594 50.9375 98.671875 50.078125 C 98.410156 49.222656 98.089844 48.386719 97.703125 47.574219 C 97.320312 46.761719 96.878906 45.984375 96.378906 45.238281 C 95.878906 44.492188 95.328125 43.785156 94.726562 43.121094 C 94.121094 42.457031 93.472656 41.839844 92.78125 41.269531 C 92.085938 40.699219 91.355469 40.183594 90.582031 39.722656 C 89.8125 39.261719 89.015625 38.859375 88.183594 38.515625 C 87.355469 38.171875 86.503906 37.890625 85.632812 37.675781 C 84.761719 37.457031 83.882812 37.304688 82.988281 37.214844 C 82.09375 37.128906 81.199219 37.105469 80.300781 37.148438 C 79.40625 37.191406 78.515625 37.300781 77.636719 37.476562 C 76.757812 37.652344 75.894531 37.890625 75.046875 38.191406 C 74.203125 38.496094 73.382812 38.859375 72.59375 39.28125 C 71.800781 39.703125 71.042969 40.183594 70.320312 40.714844 C 69.601562 41.25 68.921875 41.835938 68.289062 42.46875 L 42.46875 68.289062 C 41.835938 68.921875 41.25 69.601562 40.714844 70.320312 C 40.183594 71.042969 39.703125 71.800781 39.28125 72.59375 C 38.859375 73.382812 38.496094 74.203125 38.191406 75.046875 C 37.890625 75.894531 37.652344 76.757812 37.476562 77.636719 C 37.300781 78.515625 37.191406 79.40625 37.148438 80.300781 C 37.105469 81.199219 37.128906 82.09375 37.214844 82.988281 C 37.304688 83.882812 37.457031 84.761719 37.675781 85.632812 C 37.890625 86.503906 38.171875 87.355469 38.515625 88.183594 C 38.859375 89.015625 39.261719 89.8125 39.722656 90.582031 C 40.183594 91.355469 40.699219 92.085938 41.269531 92.78125 C 41.839844 93.472656 42.457031 94.121094 43.121094 94.726562 C 43.785156 95.328125 44.492188 95.878906 45.238281 96.378906 C 45.984375 96.878906 46.761719 97.320312 47.574219 97.703125 C 48.386719 98.089844 49.222656 98.410156 50.078125 98.671875 C 50.9375 98.933594 51.8125 99.128906 52.699219 99.261719 C 53.589844 99.394531 54.480469 99.460938 55.378906 99.460938 C 57.796875 99.480469 60.125 99.03125 62.363281 98.113281 C 64.601562 97.195312 66.578125 95.878906 68.289062 94.167969 L 69.191406 93.265625 L 87.652344 111.726562 C 84.355469 116.03125 81.355469 120.527344 78.648438 125.222656 C 75.941406 129.917969 73.550781 134.769531 71.476562 139.773438 C 69.398438 144.78125 67.65625 149.902344 66.25 155.132812 C 64.839844 160.367188 63.777344 165.667969 63.058594 171.042969 L 37.242188 171.042969 L 37.242188 169.75 C 37.277344 169.128906 37.285156 168.507812 37.257812 167.882812 C 37.230469 167.261719 37.171875 166.640625 37.082031 166.023438 C 36.992188 165.410156 36.871094 164.796875 36.722656 164.195312 C 36.570312 163.589844 36.386719 162.996094 36.175781 162.410156 C 35.960938 161.824219 35.71875 161.25 35.449219 160.6875 C 35.175781 160.128906 34.878906 159.582031 34.550781 159.050781 C 34.226562 158.519531 33.871094 158.007812 33.492188 157.515625 C 33.113281 157.019531 32.710938 156.546875 32.285156 156.09375 C 31.855469 155.636719 31.40625 155.207031 30.9375 154.800781 C 30.464844 154.394531 29.972656 154.011719 29.464844 153.652344 C 28.953125 153.292969 28.425781 152.964844 27.882812 152.660156 C 27.339844 152.355469 26.78125 152.082031 26.207031 151.835938 C 25.636719 151.585938 25.054688 151.371094 24.460938 151.183594 C 23.867188 150.996094 23.261719 150.839844 22.652344 150.710938 C 22.042969 150.585938 21.429688 150.492188 20.808594 150.429688 C 20.1875 150.363281 19.566406 150.332031 18.945312 150.332031 C 18.320312 150.332031 17.699219 150.363281 17.078125 150.429688 C 16.460938 150.492188 15.84375 150.585938 15.234375 150.710938 C 14.625 150.839844 14.023438 150.996094 13.429688 151.183594 C 12.832031 151.371094 12.25 151.585938 11.679688 151.835938 C 11.105469 152.082031 10.546875 152.355469 10.003906 152.660156 C 9.460938 152.964844 8.933594 153.292969 8.421875 153.652344 C 7.914062 154.011719 7.421875 154.394531 6.949219 154.800781 C 6.480469 155.207031 6.03125 155.636719 5.601562 156.09375 C 5.175781 156.546875 4.773438 157.019531 4.394531 157.515625 C 4.015625 158.007812 3.660156 158.519531 3.335938 159.050781 C 3.007812 159.582031 2.710938 160.128906 2.4375 160.6875 C 2.167969 161.25 1.925781 161.824219 1.714844 162.410156 C 1.5 162.996094 1.316406 163.589844 1.167969 164.195312 C 1.015625 164.796875 0.894531 165.410156 0.804688 166.023438 C 0.714844 166.640625 0.65625 167.261719 0.628906 167.882812 C 0.601562 168.507812 0.609375 169.128906 0.644531 169.75 L 0.644531 205.894531 C 0.644531 206.496094 0.675781 207.09375 0.734375 207.691406 C 0.792969 208.289062 0.878906 208.882812 0.996094 209.472656 C 1.113281 210.058594 1.261719 210.640625 1.433594 211.214844 C 1.609375 211.789062 1.8125 212.355469 2.039062 212.910156 C 2.269531 213.464844 2.527344 214.007812 2.808594 214.535156 C 3.09375 215.066406 3.402344 215.578125 3.734375 216.078125 C 4.066406 216.578125 4.425781 217.058594 4.804688 217.523438 C 5.1875 217.988281 5.589844 218.433594 6.015625 218.855469 C 6.4375 219.28125 6.882812 219.683594 7.347656 220.066406 C 7.8125 220.445312 8.292969 220.800781 8.792969 221.136719 C 9.292969 221.46875 9.804688 221.777344 10.335938 222.0625 C 10.863281 222.34375 11.40625 222.601562 11.960938 222.832031 C 12.515625 223.058594 13.082031 223.261719 13.65625 223.4375 C 14.230469 223.609375 14.8125 223.757812 15.398438 223.875 C 15.988281 223.992188 16.582031 224.078125 17.179688 224.136719 C 17.777344 224.195312 18.375 224.226562 18.976562 224.226562 Z M 235.328125 114.5 C 235.929688 114.5 236.53125 114.53125 237.128906 114.589844 C 237.730469 114.648438 238.324219 114.738281 238.914062 114.855469 C 239.507812 114.972656 240.089844 115.117188 240.667969 115.292969 C 241.242188 115.46875 241.808594 115.671875 242.367188 115.902344 C 242.921875 116.132812 243.46875 116.390625 244 116.671875 C 244.53125 116.957031 245.046875 117.265625 245.546875 117.601562 C 246.046875 117.9375 246.53125 118.292969 246.996094 118.675781 C 247.460938 119.058594 247.910156 119.460938 248.335938 119.886719 C 248.761719 120.316406 249.164062 120.761719 249.546875 121.226562 C 249.929688 121.691406 250.289062 122.175781 250.621094 122.675781 C 250.957031 123.175781 251.265625 123.691406 251.550781 124.222656 C 251.832031 124.753906 252.089844 125.300781 252.320312 125.855469 C 252.550781 126.414062 252.753906 126.980469 252.929688 127.554688 C 253.105469 128.132812 253.25 128.714844 253.367188 129.308594 C 253.484375 129.898438 253.574219 130.492188 253.632812 131.09375 C 253.691406 131.691406 253.722656 132.292969 253.722656 132.894531 C 253.722656 133.5 253.691406 134.097656 253.632812 134.699219 C 253.574219 135.296875 253.484375 135.894531 253.367188 136.484375 C 253.25 137.074219 253.105469 137.660156 252.929688 138.234375 C 252.753906 138.8125 252.550781 139.378906 252.320312 139.933594 C 252.089844 140.492188 251.832031 141.035156 251.550781 141.566406 C 251.265625 142.097656 250.957031 142.613281 250.621094 143.117188 C 250.289062 143.617188 249.929688 144.101562 249.546875 144.566406 C 249.164062 145.03125 248.761719 145.476562 248.335938 145.902344 C 247.910156 146.328125 247.460938 146.734375 246.996094 147.117188 C 246.53125 147.496094 246.046875 147.855469 245.546875 148.191406 C 245.046875 148.527344 244.53125 148.835938 244 149.117188 C 243.46875 149.402344 242.921875 149.660156 242.367188 149.890625 C 241.808594 150.121094 241.242188 150.324219 240.667969 150.5 C 240.089844 150.671875 239.507812 150.820312 238.914062 150.9375 C 238.324219 151.054688 237.730469 151.144531 237.128906 151.203125 C 236.53125 151.261719 235.929688 151.289062 235.328125 151.289062 C 234.722656 151.289062 234.125 151.261719 233.523438 151.203125 C 232.925781 151.144531 232.328125 151.054688 231.738281 150.9375 C 231.148438 150.820312 230.5625 150.671875 229.988281 150.5 C 229.410156 150.324219 228.84375 150.121094 228.289062 149.890625 C 227.730469 149.660156 227.1875 149.402344 226.65625 149.117188 C 226.125 148.835938 225.609375 148.527344 225.105469 148.191406 C 224.605469 147.855469 224.121094 147.496094 223.65625 147.117188 C 223.191406 146.734375 222.746094 146.328125 222.320312 145.902344 C 221.894531 145.476562 221.488281 145.03125 221.109375 144.566406 C 220.726562 144.101562 220.367188 143.617188 220.03125 143.117188 C 219.699219 142.613281 219.386719 142.097656 219.105469 141.566406 C 218.820312 141.035156 218.5625 140.492188 218.332031 139.933594 C 218.101562 139.378906 217.898438 138.8125 217.722656 138.234375 C 217.550781 137.660156 217.402344 137.074219 217.285156 136.484375 C 217.167969 135.894531 217.078125 135.296875 217.019531 134.699219 C 216.960938 134.097656 216.933594 133.5 216.933594 132.894531 C 216.925781 132.289062 216.949219 131.683594 217.003906 131.078125 C 217.054688 130.476562 217.140625 129.875 217.253906 129.28125 C 217.363281 128.683594 217.507812 128.09375 217.679688 127.511719 C 217.847656 126.929688 218.046875 126.359375 218.277344 125.796875 C 218.503906 125.234375 218.757812 124.683594 219.039062 124.148438 C 219.324219 123.609375 219.628906 123.089844 219.964844 122.582031 C 220.296875 122.078125 220.65625 121.585938 221.039062 121.117188 C 221.417969 120.644531 221.824219 120.195312 222.25 119.761719 C 222.675781 119.332031 223.125 118.921875 223.589844 118.535156 C 224.058594 118.148438 224.542969 117.785156 225.046875 117.449219 C 225.550781 117.109375 226.066406 116.796875 226.601562 116.507812 C 227.136719 116.21875 227.683594 115.960938 228.242188 115.726562 C 228.800781 115.492188 229.371094 115.285156 229.953125 115.109375 C 230.53125 114.933594 231.121094 114.785156 231.714844 114.664062 C 232.308594 114.546875 232.910156 114.457031 233.511719 114.398438 C 234.117188 114.335938 234.71875 114.308594 235.328125 114.308594 Z M 247.460938 182.660156 C 248.621094 182.660156 249.777344 182.714844 250.929688 182.828125 C 252.082031 182.941406 253.226562 183.113281 254.363281 183.339844 C 255.5 183.566406 256.625 183.847656 257.734375 184.183594 C 258.839844 184.519531 259.929688 184.910156 261 185.355469 C 262.074219 185.796875 263.117188 186.292969 264.140625 186.839844 C 265.164062 187.386719 266.15625 187.980469 267.117188 188.625 C 268.082031 189.269531 269.011719 189.957031 269.90625 190.695312 C 270.800781 191.429688 271.660156 192.207031 272.480469 193.027344 C 273.296875 193.847656 274.074219 194.703125 274.808594 195.601562 C 275.546875 196.496094 276.234375 197.425781 276.878906 198.390625 C 277.519531 199.355469 278.117188 200.347656 278.660156 201.367188 C 279.207031 202.390625 279.703125 203.4375 280.144531 204.507812 C 280.589844 205.578125 280.976562 206.667969 281.3125 207.777344 C 281.648438 208.886719 281.929688 210.011719 282.15625 211.148438 C 282.378906 212.285156 282.550781 213.429688 282.664062 214.582031 C 282.777344 215.734375 282.832031 216.890625 282.832031 218.050781 C 282.832031 219.210938 282.773438 220.367188 282.660156 221.519531 C 282.542969 222.671875 282.375 223.816406 282.148438 224.953125 C 281.921875 226.089844 281.636719 227.210938 281.300781 228.320312 C 280.964844 229.429688 280.574219 230.519531 280.128906 231.589844 C 279.683594 232.660156 279.1875 233.707031 278.640625 234.726562 C 278.09375 235.75 277.5 236.742188 276.855469 237.703125 C 276.210938 238.667969 275.519531 239.597656 274.78125 240.492188 C 274.046875 241.386719 273.269531 242.242188 272.449219 243.0625 C 271.628906 243.882812 270.769531 244.65625 269.875 245.390625 C 268.976562 246.125 268.046875 246.816406 267.082031 247.457031 C 266.117188 248.101562 265.125 248.695312 264.101562 249.238281 C 263.078125 249.785156 262.03125 250.277344 260.960938 250.722656 C 259.890625 251.164062 258.800781 251.550781 257.691406 251.886719 C 256.582031 252.222656 255.457031 252.503906 254.320312 252.726562 C 253.183594 252.953125 252.039062 253.121094 250.886719 253.234375 C 249.734375 253.34375 248.578125 253.402344 247.417969 253.398438 C 246.257812 253.398438 245.101562 253.339844 243.949219 253.226562 C 242.796875 253.109375 241.652344 252.9375 240.515625 252.710938 C 239.378906 252.484375 238.257812 252.199219 237.148438 251.863281 C 236.039062 251.523438 234.949219 251.132812 233.882812 250.6875 C 232.8125 250.242188 231.765625 249.746094 230.742188 249.199219 C 229.722656 248.652344 228.730469 248.054688 227.769531 247.410156 C 226.804688 246.765625 225.875 246.074219 224.980469 245.335938 C 224.085938 244.601562 223.230469 243.824219 222.414062 243 C 221.59375 242.179688 220.820312 241.320312 220.085938 240.425781 C 219.351562 239.527344 218.664062 238.597656 218.019531 237.632812 C 217.378906 236.667969 216.785156 235.675781 216.242188 234.652344 C 215.695312 233.628906 215.203125 232.582031 214.761719 231.511719 C 214.320312 230.4375 213.929688 229.347656 213.597656 228.238281 C 213.261719 227.128906 212.984375 226.007812 212.757812 224.867188 C 212.535156 223.730469 212.367188 222.585938 212.253906 221.433594 C 212.144531 220.28125 212.089844 219.125 212.089844 217.964844 C 212.089844 216.808594 212.148438 215.652344 212.261719 214.5 C 212.375 213.347656 212.546875 212.203125 212.769531 211.070312 C 212.996094 209.933594 213.277344 208.8125 213.613281 207.703125 C 213.953125 206.597656 214.339844 205.507812 214.785156 204.4375 C 215.226562 203.371094 215.722656 202.324219 216.269531 201.304688 C 216.816406 200.285156 217.410156 199.292969 218.054688 198.328125 C 218.699219 197.367188 219.386719 196.441406 220.125 195.546875 C 220.859375 194.652344 221.636719 193.792969 222.453125 192.976562 C 223.273438 192.160156 224.132812 191.382812 225.027344 190.648438 C 225.921875 189.917969 226.851562 189.230469 227.816406 188.585938 C 228.777344 187.945312 229.769531 187.351562 230.792969 186.808594 C 231.816406 186.261719 232.859375 185.769531 233.929688 185.328125 C 235 184.886719 236.089844 184.5 237.199219 184.164062 C 238.304688 183.828125 239.429688 183.550781 240.5625 183.328125 C 241.699219 183.101562 242.84375 182.933594 243.996094 182.824219 C 245.148438 182.710938 246.304688 182.65625 247.460938 182.660156 Z M 206.152344 256.367188 C 206.890625 256.972656 207.578125 257.628906 208.222656 258.332031 C 208.863281 259.039062 209.449219 259.785156 209.984375 260.578125 C 210.515625 261.367188 210.988281 262.191406 211.402344 263.050781 C 211.816406 263.910156 212.164062 264.796875 212.449219 265.707031 C 212.734375 266.617188 212.949219 267.542969 213.101562 268.484375 C 213.25 269.425781 213.332031 270.371094 213.34375 271.324219 C 213.355469 272.277344 213.300781 273.226562 213.175781 274.171875 C 213.050781 275.117188 212.855469 276.050781 212.59375 276.964844 C 212.335938 277.882812 212.007812 278.777344 211.617188 279.648438 C 211.226562 280.515625 210.777344 281.355469 210.261719 282.15625 C 209.75 282.960938 209.183594 283.726562 208.5625 284.445312 C 207.9375 285.167969 207.265625 285.839844 206.542969 286.464844 C 205.824219 287.089844 205.0625 287.65625 204.257812 288.171875 C 203.453125 288.683594 202.617188 289.136719 201.75 289.527344 C 200.878906 289.921875 199.988281 290.246094 199.070312 290.507812 C 198.152344 290.773438 197.222656 290.964844 196.277344 291.09375 L 193.953125 291.09375 C 191.738281 291.101562 189.582031 290.742188 187.488281 290.011719 C 185.394531 289.28125 183.484375 288.21875 181.753906 286.832031 C 181.253906 286.433594 180.769531 286.011719 180.308594 285.5625 C 179.847656 285.117188 179.410156 284.648438 178.996094 284.15625 C 178.582031 283.667969 178.191406 283.160156 177.824219 282.632812 C 177.460938 282.105469 177.121094 281.558594 176.808594 280.996094 C 176.496094 280.4375 176.214844 279.863281 175.957031 279.273438 C 175.703125 278.683594 175.476562 278.085938 175.277344 277.472656 C 175.082031 276.863281 174.914062 276.242188 174.777344 275.617188 C 174.640625 274.988281 174.535156 274.355469 174.460938 273.71875 C 174.386719 273.082031 174.34375 272.441406 174.332031 271.796875 C 174.316406 271.15625 174.335938 270.515625 174.386719 269.875 C 174.4375 269.234375 174.519531 268.601562 174.632812 267.96875 C 174.746094 267.335938 174.890625 266.710938 175.0625 266.09375 C 175.238281 265.472656 175.441406 264.867188 175.675781 264.269531 C 175.910156 263.671875 176.171875 263.085938 176.460938 262.511719 C 176.753906 261.941406 177.070312 261.382812 177.414062 260.84375 C 177.761719 260.300781 178.132812 259.777344 178.527344 259.273438 C 178.933594 258.773438 179.363281 258.296875 179.816406 257.839844 C 180.269531 257.382812 180.742188 256.949219 181.238281 256.539062 C 181.730469 256.128906 182.246094 255.742188 182.777344 255.382812 C 183.3125 255.023438 183.859375 254.691406 184.425781 254.386719 C 184.992188 254.078125 185.570312 253.800781 186.160156 253.550781 C 186.753906 253.300781 187.359375 253.082031 187.972656 252.890625 C 188.585938 252.703125 189.207031 252.542969 189.835938 252.414062 C 190.46875 252.28125 191.101562 252.183594 191.742188 252.117188 C 192.378906 252.050781 193.023438 252.015625 193.664062 252.011719 C 194.308594 252.003906 194.949219 252.03125 195.589844 252.089844 C 196.230469 252.148438 196.863281 252.238281 197.496094 252.359375 C 198.128906 252.480469 198.753906 252.632812 199.367188 252.8125 C 199.984375 252.996094 200.589844 253.207031 201.1875 253.449219 C 201.785156 253.691406 202.367188 253.960938 202.933594 254.257812 C 203.503906 254.554688 204.058594 254.882812 204.597656 255.234375 C 205.132812 255.585938 205.652344 255.964844 206.152344 256.367188 Z M 115.792969 100.558594 C 124.246094 93.632812 133.496094 88.015625 143.546875 83.714844 C 133.4375 88.035156 124.144531 93.695312 115.664062 100.6875 Z M 135.476562 122.890625 C 136.945312 122.882812 138.410156 122.945312 139.871094 123.082031 C 141.332031 123.21875 142.78125 123.425781 144.222656 123.703125 C 145.664062 123.980469 147.085938 124.328125 148.492188 124.75 C 149.898438 125.167969 151.28125 125.652344 152.640625 126.207031 C 153.996094 126.761719 155.324219 127.382812 156.621094 128.066406 C 157.917969 128.753906 159.179688 129.5 160.40625 130.308594 C 161.628906 131.117188 162.808594 131.984375 163.949219 132.910156 C 165.085938 133.835938 166.175781 134.816406 167.21875 135.847656 C 168.261719 136.878906 169.25 137.960938 170.1875 139.089844 C 171.121094 140.222656 172 141.394531 172.820312 142.609375 C 173.640625 143.828125 174.398438 145.082031 175.097656 146.371094 C 175.792969 147.664062 176.425781 148.984375 176.992188 150.339844 C 177.558594 151.691406 178.058594 153.070312 178.488281 154.472656 C 178.921875 155.875 179.28125 157.292969 179.574219 158.734375 C 179.863281 160.171875 180.085938 161.621094 180.234375 163.078125 C 180.382812 164.539062 180.460938 166 180.464844 167.46875 C 180.46875 168.9375 180.402344 170.398438 180.261719 171.859375 C 180.125 173.320312 179.914062 174.769531 179.632812 176.210938 C 179.351562 177.652344 179 179.074219 178.578125 180.480469 C 178.15625 181.882812 177.664062 183.265625 177.105469 184.621094 C 176.550781 185.980469 175.925781 187.304688 175.238281 188.601562 C 174.550781 189.898438 173.800781 191.15625 172.988281 192.378906 C 172.175781 193.601562 171.304688 194.777344 170.378906 195.914062 C 169.449219 197.050781 168.46875 198.140625 167.433594 199.179688 C 166.398438 200.21875 165.3125 201.207031 164.179688 202.136719 C 163.050781 203.070312 161.875 203.945312 160.65625 204.765625 C 159.4375 205.582031 158.179688 206.335938 156.890625 207.03125 C 155.597656 207.722656 154.273438 208.351562 152.917969 208.917969 C 151.5625 209.480469 150.183594 209.976562 148.78125 210.402344 C 147.378906 210.832031 145.957031 211.191406 144.519531 211.476562 C 143.078125 211.765625 141.628906 211.984375 140.171875 212.128906 C 138.710938 212.273438 137.246094 212.347656 135.777344 212.347656 C 134.3125 212.351562 132.847656 212.28125 131.386719 212.136719 C 129.929688 211.996094 128.476562 211.78125 127.039062 211.496094 C 125.601562 211.210938 124.179688 210.855469 122.773438 210.429688 C 121.371094 210.003906 119.988281 209.511719 118.632812 208.949219 C 117.277344 208.390625 115.953125 207.761719 114.660156 207.070312 C 113.367188 206.378906 112.109375 205.628906 110.886719 204.8125 C 109.667969 203.996094 108.492188 203.125 107.355469 202.195312 C 106.222656 201.261719 105.136719 200.277344 104.101562 199.242188 C 103.0625 198.203125 102.078125 197.117188 101.148438 195.984375 C 100.21875 194.847656 99.347656 193.671875 98.53125 192.449219 C 97.71875 191.230469 96.964844 189.972656 96.273438 188.679688 C 95.582031 187.382812 94.957031 186.058594 94.398438 184.703125 C 93.835938 183.347656 93.34375 181.964844 92.921875 180.5625 C 92.496094 179.15625 92.140625 177.734375 91.855469 176.296875 C 91.570312 174.855469 91.359375 173.40625 91.214844 171.945312 C 91.074219 170.488281 91.003906 169.023438 91.007812 167.554688 C 91.007812 166.097656 91.082031 164.644531 91.226562 163.191406 C 91.371094 161.742188 91.585938 160.300781 91.871094 158.871094 C 92.15625 157.441406 92.511719 156.027344 92.933594 154.632812 C 93.355469 153.238281 93.847656 151.867188 94.40625 150.519531 C 94.960938 149.171875 95.585938 147.855469 96.269531 146.566406 C 96.957031 145.28125 97.703125 144.03125 98.511719 142.816406 C 99.320312 141.605469 100.1875 140.433594 101.109375 139.304688 C 102.035156 138.175781 103.011719 137.09375 104.039062 136.058594 C 105.066406 135.027344 106.144531 134.046875 107.269531 133.117188 C 108.394531 132.191406 109.5625 131.320312 110.773438 130.503906 C 111.980469 129.691406 113.226562 128.9375 114.511719 128.246094 C 115.796875 127.554688 117.109375 126.925781 118.453125 126.363281 C 119.800781 125.800781 121.167969 125.304688 122.5625 124.875 C 123.957031 124.445312 125.367188 124.085938 126.796875 123.792969 C 128.226562 123.5 129.664062 123.28125 131.113281 123.128906 C 132.566406 122.980469 134.019531 122.898438 135.476562 122.890625 Z M 84.550781 78.097656 L 102.300781 95.847656 Z M 84.550781 78.097656 " fill-opacity="1" fill-rule="nonzero"/></svg>